<svg xmlns="http://www.w3.org/2000/svg" class="graphdiagram" viewBox="-2615.19384548718 -679.3540342198108 4696.510427754098 2243.8883154825135"><g class="layer relationships"><g class="related-pair"><g class="relationship" transform="translate(0,0) rotate(79.90964924024283)"><path class="relationship" d="M 200.9821614607479 4 L 776.7651710488535 4 L 776.7651710488535 16 L 808.7651710488535 0 L 776.7651710488535 -16 L 776.7651710488535 -4 L 200.9821614607479 -4 Z" fill="rgb(0, 0, 0)" stroke="rgb(51, 51, 51)" stroke-width="0px"/><text class="type" text-anchor="middle" baseline-shift="30%" alignment-baseline="alphabetic" x="488.8736662548007" y="0" font-size="50px" font-family="'Gill Sans', 'Gill Sans MT', Calibri, sans-serif">talks_session</text></g></g><g class="related-pair"><g class="relationship" transform="translate(0,0) rotate(141.86369212746428)"><path class="relationship" d="M 200.9821614607479 4 L 449.04135983995786 4 L 449.04135983995786 16 L 481.04135983995786 0 L 449.04135983995786 -16 L 449.04135983995786 -4 L 200.9821614607479 -4 Z" fill="rgb(0, 0, 0)" stroke="rgb(51, 51, 51)" stroke-width="0px"/><text class="type" text-anchor="middle" baseline-shift="30%" alignment-baseline="alphabetic" transform="rotate(180)" x="-325.01176065035287" y="0" font-size="50px" font-family="'Gill Sans', 'Gill Sans MT', Calibri, sans-serif">talks_speaker</text></g></g><g class="related-pair"><g class="relationship" transform="translate(0,0) rotate(-21.963165083282718)"><path class="relationship" d="M 200.9821614607479 4 L 597.691123266967 4 L 597.691123266967 16 L 629.691123266967 0 L 597.691123266967 -16 L 597.691123266967 -4 L 200.9821614607479 -4 Z" fill="rgb(0, 0, 0)" stroke="rgb(51, 51, 51)" stroke-width="0px"/><text class="type" text-anchor="middle" baseline-shift="30%" alignment-baseline="alphabetic" x="399.33664236385744" y="0" font-size="50px" font-family="'Gill Sans', 'Gill Sans MT', Calibri, sans-serif">talks_tracks0</text></g></g><g class="related-pair"><g class="relationship" transform="translate(0,0) rotate(7.078154087701614)"><path class="relationship" d="M 200.9821614607479 4 L 818.9491634053497 4 L 818.9491634053497 16 L 850.9491634053497 0 L 818.9491634053497 -16 L 818.9491634053497 -4 L 200.9821614607479 -4 Z" fill="rgb(0, 0, 0)" stroke="rgb(51, 51, 51)" stroke-width="0px"/><text class="type" text-anchor="middle" baseline-shift="30%" alignment-baseline="alphabetic" x="509.9656624330488" y="0" font-size="50px" font-family="'Gill Sans', 'Gill Sans MT', Calibri, sans-serif">talks_tracks1</text></g></g></g><g class="layer nodes"><circle class="node node-id-0" r="185.9821614607479" fill="rgb(255, 255, 255)" stroke="rgb(0, 0, 0)" stroke-width="8px" cx="0" cy="0"/><circle class="node node-id-1" r="212.2619812873495" fill="rgb(255, 255, 255)" stroke="rgb(0, 0, 0)" stroke-width="8px" cx="181.51291275024397" cy="1020.0026092529295"/><g class="caption"><text class="caption node" text-anchor="middle" alignment-baseline="central" x="0" y="0" font-size="50px" font-family="'Gill Sans', 'Gill Sans MT', Calibri, sans-serif">:Document:talks</text></g><g class="caption"><text class="caption node" text-anchor="middle" alignment-baseline="central" x="181.51291275024397" y="1020.0026092529295" font-size="50px" font-family="'Gill Sans', 'Gill Sans MT', Calibri, sans-serif">:Document:session</text></g><circle class="node node-id-2" r="218.21889398607024" fill="rgb(255, 255, 255)" stroke="rgb(0, 0, 0)" stroke-width="8px" cx="-561.7970123291014" cy="441.08029556274397"/><circle class="node node-id-3" r="213.58144432746536" fill="rgb(255, 255, 255)" stroke="rgb(0, 0, 0)" stroke-width="8px" cx="795.9830017089841" cy="-321.0028991699219"/><circle class="node node-id-4" r="213.58144432746536" fill="rgb(255, 255, 255)" stroke="rgb(0, 0, 0)" stroke-width="8px" cx="1071.303497314453" cy="133.02311706542966"/><g class="caption"><text class="caption node" text-anchor="middle" alignment-baseline="central" x="-561.7970123291014" y="441.08029556274397" font-size="50px" font-family="'Gill Sans', 'Gill Sans MT', Calibri, sans-serif">:Document:speaker</text></g><g class="caption"><text class="caption node" text-anchor="middle" alignment-baseline="central" x="795.9830017089841" y="-321.0028991699219" font-size="50px" font-family="'Gill Sans', 'Gill Sans MT', Calibri, sans-serif">:Document:tracks0</text></g><g class="caption"><text class="caption node" text-anchor="middle" alignment-baseline="central" x="1071.303497314453" y="133.02311706542966" font-size="50px" font-family="'Gill Sans', 'Gill Sans MT', Calibri, sans-serif">:Document:tracks1</text></g></g><g class="layer properties"><g class="speech-bubble node-speech-bubble" transform="translate(-131.50924754862623,-131.50924754862623) "><path class="speech-bubble-outline" transform="scale(-1,-1) " d="M 0 0 L 30 20 L 806.318359375 20 A 10 10 0 0 1 816.318359375 30 L 816.318359375 230 A 10 10 0 0 1 806.318359375 240 L 30 240 A 10 10 0 0 1 20 230 L 20 30 Z" fill="rgb(255, 255, 255)" stroke="rgb(0, 0, 0)" stroke-width="3px"/><text class="speech-bubble-content property-key" x="-616.9140625" y="-205" alignment-baseline="central" text-anchor="end" font-size="50px" font-family="'Gill Sans', 'Gill Sans MT', Calibri, sans-serif" xml:space="preserve">topics: </text><text class="speech-bubble-content property-key" x="-616.9140625" y="-155" alignment-baseline="central" text-anchor="end" font-size="50px" font-family="'Gill Sans', 'Gill Sans MT', Calibri, sans-serif" xml:space="preserve">_id: </text><text class="speech-bubble-content property-key" x="-616.9140625" y="-105" alignment-baseline="central" text-anchor="end" font-size="50px" font-family="'Gill Sans', 'Gill Sans MT', Calibri, sans-serif" xml:space="preserve">room: </text><text class="speech-bubble-content property-value" x="-616.9140625" y="-205" alignment-baseline="central" font-size="50px" font-family="'Gill Sans', 'Gill Sans MT', Calibri, sans-serif">["keynote", "spring"]</text><text class="speech-bubble-content property-value" x="-616.9140625" y="-155" alignment-baseline="central" font-size="50px" font-family="'Gill Sans', 'Gill Sans MT', Calibri, sans-serif">562990e5867791a26a71a3eb</text><text class="speech-bubble-content property-value" x="-616.9140625" y="-105" alignment-baseline="central" font-size="50px" font-family="'Gill Sans', 'Gill Sans MT', Calibri, sans-serif">Auditorium</text><text class="speech-bubble-content property-key" x="-616.9140625" y="-55" alignment-baseline="central" text-anchor="end" font-size="50px" font-family="'Gill Sans', 'Gill Sans MT', Calibri, sans-serif" xml:space="preserve">timeslot: </text><text class="speech-bubble-content property-value" x="-616.9140625" y="-55" alignment-baseline="central" font-size="50px" font-family="'Gill Sans', 'Gill Sans MT', Calibri, sans-serif">Wed 29th, 09:30-10:30</text></g><g class="speech-bubble node-speech-bubble" transform="translate(181.51291275024397,1232.264590540279) "><path class="speech-bubble-outline" transform="scale(1,1) " d="M 0 0 L -10 20 L -1433.4716796875 20 A 10 10 0 0 0 -1443.4716796875 30 L -1443.4716796875 180 A 10 10 0 0 0 -1433.4716796875 190 L 1433.4716796875 190 A 10 10 0 0 0 1443.4716796875 180 L 1443.4716796875 30 A 10 10 0 0 0 1433.4716796875 20 L 10 20 Z" fill="rgb(255, 255, 255)" stroke="rgb(0, 0, 0)" stroke-width="3px"/><text class="speech-bubble-content property-key" x="-1246.7041015625" y="55" alignment-baseline="central" text-anchor="end" font-size="50px" font-family="'Gill Sans', 'Gill Sans MT', Calibri, sans-serif" xml:space="preserve">abstract: </text><text class="speech-bubble-content property-key" x="-1246.7041015625" y="105" alignment-baseline="central" text-anchor="end" font-size="50px" font-family="'Gill Sans', 'Gill Sans MT', Calibri, sans-serif" xml:space="preserve">_id: </text><text class="speech-bubble-content property-key" x="-1246.7041015625" y="155" alignment-baseline="central" text-anchor="end" font-size="50px" font-family="'Gill Sans', 'Gill Sans MT', Calibri, sans-serif" xml:space="preserve">title: </text><text class="speech-bubble-content property-value" x="-1246.7041015625" y="55" alignment-baseline="central" font-size="50px" font-family="'Gill Sans', 'Gill Sans MT', Calibri, sans-serif">Spring emerged as a core open source project in early 2003 and evolved to a broad portfolio of open source projects up until 2015.</text><text class="speech-bubble-content property-value" x="-1246.7041015625" y="105" alignment-baseline="central" font-size="50px" font-family="'Gill Sans', 'Gill Sans MT', Calibri, sans-serif">562990e5867791a26a71a3eb</text><text class="speech-bubble-content property-value" x="-1246.7041015625" y="155" alignment-baseline="central" font-size="50px" font-family="'Gill Sans', 'Gill Sans MT', Calibri, sans-serif">12 Years of Spring: An Open Source Journey</text></g><g class="speech-bubble node-speech-bubble" transform="translate(-716.10107204968,595.3843552833225) "><path class="speech-bubble-outline" transform="scale(-1,1) " d="M 0 0 L 30 20 L 1887.5927734375 20 A 10 10 0 0 1 1897.5927734375 30 L 1897.5927734375 280 A 10 10 0 0 1 1887.5927734375 290 L 30 290 A 10 10 0 0 1 20 280 L 20 30 Z" fill="rgb(255, 255, 255)" stroke="rgb(0, 0, 0)" stroke-width="3px"/><text class="speech-bubble-content property-key" x="-1719.4775390625" y="55" alignment-baseline="central" text-anchor="end" font-size="50px" font-family="'Gill Sans', 'Gill Sans MT', Calibri, sans-serif" xml:space="preserve">bio: </text><text class="speech-bubble-content property-key" x="-1719.4775390625" y="105" alignment-baseline="central" text-anchor="end" font-size="50px" font-family="'Gill Sans', 'Gill Sans MT', Calibri, sans-serif" xml:space="preserve">twitter: </text><text class="speech-bubble-content property-key" x="-1719.4775390625" y="155" alignment-baseline="central" text-anchor="end" font-size="50px" font-family="'Gill Sans', 'Gill Sans MT', Calibri, sans-serif" xml:space="preserve">_id: </text><text class="speech-bubble-content property-key" x="-1719.4775390625" y="205" alignment-baseline="central" text-anchor="end" font-size="50px" font-family="'Gill Sans', 'Gill Sans MT', Calibri, sans-serif" xml:space="preserve">name: </text><text class="speech-bubble-content property-key" x="-1719.4775390625" y="255" alignment-baseline="central" text-anchor="end" font-size="50px" font-family="'Gill Sans', 'Gill Sans MT', Calibri, sans-serif" xml:space="preserve">picture: </text><text class="speech-bubble-content property-value" x="-1719.4775390625" y="55" alignment-baseline="central" font-size="50px" font-family="'Gill Sans', 'Gill Sans MT', Calibri, sans-serif">Juergen Hoeller is co-founder of the Spring Framework open source project.</text><text class="speech-bubble-content property-value" x="-1719.4775390625" y="105" alignment-baseline="central" font-size="50px" font-family="'Gill Sans', 'Gill Sans MT', Calibri, sans-serif">https://twitter.com/springjuergen</text><text class="speech-bubble-content property-value" x="-1719.4775390625" y="155" alignment-baseline="central" font-size="50px" font-family="'Gill Sans', 'Gill Sans MT', Calibri, sans-serif">562990e5867791a26a71a3eb</text><text class="speech-bubble-content property-value" x="-1719.4775390625" y="205" alignment-baseline="central" font-size="50px" font-family="'Gill Sans', 'Gill Sans MT', Calibri, sans-serif">Juergen Hoeller</text><text class="speech-bubble-content property-value" x="-1719.4775390625" y="255" alignment-baseline="central" font-size="50px" font-family="'Gill Sans', 'Gill Sans MT', Calibri, sans-serif">http://www.springio.net/wp-content/uploads/2014/11/juergen_hoeller-220x220.jpeg</text></g><g class="speech-bubble node-speech-bubble" transform="translate(1009.5644460364495,-321.0028991699219) "><path class="speech-bubble-outline" transform="scale(1,1) " d="M 0 0 L 20 -10 L 20 -50 A 10 10 0 0 1 30 -60 L 737.6171875 -60 A 10 10 0 0 1 747.6171875 -50 L 747.6171875 50 A 10 10 0 0 1 737.6171875 60 L 30 60 A 10 10 0 0 1 20 50 L 20 10 Z" fill="rgb(255, 255, 255)" stroke="rgb(0, 0, 0)" stroke-width="3px"/><text class="speech-bubble-content property-key" x="150.703125" y="-25" alignment-baseline="central" text-anchor="end" font-size="50px" font-family="'Gill Sans', 'Gill Sans MT', Calibri, sans-serif" xml:space="preserve">main: </text><text class="speech-bubble-content property-key" x="150.703125" y="25" alignment-baseline="central" text-anchor="end" font-size="50px" font-family="'Gill Sans', 'Gill Sans MT', Calibri, sans-serif" xml:space="preserve">_id: </text><text class="speech-bubble-content property-value" x="150.703125" y="-25" alignment-baseline="central" font-size="50px" font-family="'Gill Sans', 'Gill Sans MT', Calibri, sans-serif">Java</text><text class="speech-bubble-content property-value" x="150.703125" y="25" alignment-baseline="central" font-size="50px" font-family="'Gill Sans', 'Gill Sans MT', Calibri, sans-serif">562990e5867791a26a71a3eb</text></g><g class="speech-bubble node-speech-bubble" transform="translate(1284.8849416419182,133.02311706542966) "><path class="speech-bubble-outline" transform="scale(1,1) " d="M 0 0 L 20 -10 L 20 -50 A 10 10 0 0 1 30 -60 L 784.931640625 -60 A 10 10 0 0 1 794.931640625 -50 L 794.931640625 50 A 10 10 0 0 1 784.931640625 60 L 30 60 A 10 10 0 0 1 20 50 L 20 10 Z" fill="rgb(255, 255, 255)" stroke="rgb(0, 0, 0)" stroke-width="3px"/><text class="speech-bubble-content property-key" x="198.017578125" y="-25" alignment-baseline="central" text-anchor="end" font-size="50px" font-family="'Gill Sans', 'Gill Sans MT', Calibri, sans-serif" xml:space="preserve">second: </text><text class="speech-bubble-content property-key" x="198.017578125" y="25" alignment-baseline="central" text-anchor="end" font-size="50px" font-family="'Gill Sans', 'Gill Sans MT', Calibri, sans-serif" xml:space="preserve">_id: </text><text class="speech-bubble-content property-value" x="198.017578125" y="-25" alignment-baseline="central" font-size="50px" font-family="'Gill Sans', 'Gill Sans MT', Calibri, sans-serif">Languages</text><text class="speech-bubble-content property-value" x="198.017578125" y="25" alignment-baseline="central" font-size="50px" font-family="'Gill Sans', 'Gill Sans MT', Calibri, sans-serif">562990e5867791a26a71a3eb</text></g></g><g class="layer overlay"><circle class="node overlay" r="189.9821614607479" stroke="none" fill="rgba(255, 255, 255, 0)" cx="0" cy="0"/><circle class="node overlay" r="216.2619812873495" stroke="none" fill="rgba(255, 255, 255, 0)" cx="181.51291275024397" cy="1020.0026092529295"/><circle class="node ring" r="194.9821614607479" fill="none" stroke="rgba(255, 255, 255, 0)" stroke-width="10px" cx="0" cy="0"/><circle class="node ring" r="221.2619812873495" fill="none" stroke="rgba(255, 255, 255, 0)" stroke-width="10px" cx="181.51291275024397" cy="1020.0026092529295"/><path class="relationship overlay" fill="rgba(255, 255, 255, 0)" stroke="rgba(255, 255, 255, 0)" stroke-width="10px" transform="translate(0,0) rotate(79.90964924024283)" d="M 200.9821614607479 4 L 776.7651710488535 4 L 776.7651710488535 16 L 808.7651710488535 0 L 776.7651710488535 -16 L 776.7651710488535 -4 L 200.9821614607479 -4 Z"/><circle class="node overlay" r="222.21889398607024" stroke="none" fill="rgba(255, 255, 255, 0)" cx="-561.7970123291014" cy="441.08029556274397"/><circle class="node overlay" r="217.58144432746536" stroke="none" fill="rgba(255, 255, 255, 0)" cx="795.9830017089841" cy="-321.0028991699219"/><circle class="node overlay" r="217.58144432746536" stroke="none" fill="rgba(255, 255, 255, 0)" cx="1071.303497314453" cy="133.02311706542966"/><circle class="node ring" r="227.21889398607024" fill="none" stroke="rgba(255, 255, 255, 0)" stroke-width="10px" cx="-561.7970123291014" cy="441.08029556274397"/><circle class="node ring" r="222.58144432746536" fill="none" stroke="rgba(255, 255, 255, 0)" stroke-width="10px" cx="795.9830017089841" cy="-321.0028991699219"/><circle class="node ring" r="222.58144432746536" fill="none" stroke="rgba(255, 255, 255, 0)" stroke-width="10px" cx="1071.303497314453" cy="133.02311706542966"/><path class="relationship overlay" fill="rgba(255, 255, 255, 0)" stroke="rgba(255, 255, 255, 0)" stroke-width="10px" transform="translate(0,0) rotate(141.86369212746428)" d="M 200.9821614607479 4 L 449.04135983995786 4 L 449.04135983995786 16 L 481.04135983995786 0 L 449.04135983995786 -16 L 449.04135983995786 -4 L 200.9821614607479 -4 Z"/><path class="relationship overlay" fill="rgba(255, 255, 255, 0)" stroke="rgba(255, 255, 255, 0)" stroke-width="10px" transform="translate(0,0) rotate(-21.963165083282718)" d="M 200.9821614607479 4 L 597.691123266967 4 L 597.691123266967 16 L 629.691123266967 0 L 597.691123266967 -16 L 597.691123266967 -4 L 200.9821614607479 -4 Z"/><path class="relationship overlay" fill="rgba(255, 255, 255, 0)" stroke="rgba(255, 255, 255, 0)" stroke-width="10px" transform="translate(0,0) rotate(7.078154087701614)" d="M 200.9821614607479 4 L 818.9491634053497 4 L 818.9491634053497 16 L 850.9491634053497 0 L 818.9491634053497 -16 L 818.9491634053497 -4 L 200.9821614607479 -4 Z"/></g></svg>