<svg xmlns="http://www.w3.org/2000/svg" class="graphdiagram" viewBox="-930.9733723982479 -558.6215880125911 3018.7814907219135 1442.3067122338032"><g class="layer relationships"><g class="related-pair"><g class="relationship" transform="translate(0,0) rotate(13.55869228571565)"><path class="relationship" d="M 200.9821614607479 4 L 805.1930729780624 4 L 805.1930729780624 16 L 837.1930729780624 0 L 805.1930729780624 -16 L 805.1930729780624 -4 L 200.9821614607479 -4 Z" fill="rgb(0, 0, 0)" stroke="rgb(51, 51, 51)" stroke-width="0px"/><text class="type" text-anchor="middle" baseline-shift="30%" alignment-baseline="alphabetic" x="503.08761721940516" y="0" font-size="50px" font-family="'Gill Sans', 'Gill Sans MT', Calibri, sans-serif">talks_conference</text></g></g></g><g class="layer nodes"><circle class="node node-id-0" r="185.9821614607479" fill="rgb(255, 255, 255)" stroke="rgb(0, 0, 0)" stroke-width="8px" cx="0" cy="0"/><g class="caption"><text class="caption node" text-anchor="middle" alignment-baseline="central" x="0" y="0" font-size="50px" font-family="'Gill Sans', 'Gill Sans MT', Calibri, sans-serif">:Document:talks</text></g><circle class="node node-id-1" r="252.14356754241538" fill="rgb(255, 255, 255)" stroke="rgb(0, 0, 0)" stroke-width="8px" cx="1073.5590820312505" cy="258.90213012695347"/><g class="caption"><text class="caption node" text-anchor="middle" alignment-baseline="central" x="1073.5590820312505" y="258.90213012695347" font-size="50px" font-family="'Gill Sans', 'Gill Sans MT', Calibri, sans-serif">:Document:conference</text></g></g><g class="layer properties"><g class="speech-bubble node-speech-bubble" transform="translate(-185.9821614607479,0) "><path class="speech-bubble-outline" transform="scale(-1,1) " d="M 0 0 L 20 -10 L 20 -50 A 10 10 0 0 1 30 -60 L 733.4912109375 -60 A 10 10 0 0 1 743.4912109375 -50 L 743.4912109375 50 A 10 10 0 0 1 733.4912109375 60 L 30 60 A 10 10 0 0 1 20 50 L 20 10 Z" fill="rgb(255, 255, 255)" stroke="rgb(0, 0, 0)" stroke-width="3px"/><text class="speech-bubble-content property-key" x="-616.9140625" y="-25" alignment-baseline="central" text-anchor="end" font-size="50px" font-family="'Gill Sans', 'Gill Sans MT', Calibri, sans-serif" xml:space="preserve">_id: </text><text class="speech-bubble-content property-value" x="-616.9140625" y="-25" alignment-baseline="central" font-size="50px" font-family="'Gill Sans', 'Gill Sans MT', Calibri, sans-serif">562990e5867791a26a71a3eb</text><text class="speech-bubble-content property-key" x="-616.9140625" y="25" alignment-baseline="central" text-anchor="end" font-size="50px" font-family="'Gill Sans', 'Gill Sans MT', Calibri, sans-serif" xml:space="preserve">level: </text><text class="speech-bubble-content property-value" x="-616.9140625" y="25" alignment-baseline="central" font-size="50px" font-family="'Gill Sans', 'Gill Sans MT', Calibri, sans-serif">intermediate</text></g><g class="speech-bubble node-speech-bubble" transform="translate(1325.702649573666,258.90213012695347) "><path class="speech-bubble-outline" transform="scale(1,1) " d="M 0 0 L 20 -10 L 20 -75 A 10 10 0 0 1 30 -85 L 750.60546875 -85 A 10 10 0 0 1 760.60546875 -75 L 760.60546875 75 A 10 10 0 0 1 750.60546875 85 L 30 85 A 10 10 0 0 1 20 75 L 20 10 Z" fill="rgb(255, 255, 255)" stroke="rgb(0, 0, 0)" stroke-width="3px"/><text class="speech-bubble-content property-key" x="163.69140625" y="-50" alignment-baseline="central" text-anchor="end" font-size="50px" font-family="'Gill Sans', 'Gill Sans MT', Calibri, sans-serif" xml:space="preserve">city: </text><text class="speech-bubble-content property-key" x="163.69140625" y="0" alignment-baseline="central" text-anchor="end" font-size="50px" font-family="'Gill Sans', 'Gill Sans MT', Calibri, sans-serif" xml:space="preserve">_id: </text><text class="speech-bubble-content property-key" x="163.69140625" y="50" alignment-baseline="central" text-anchor="end" font-size="50px" font-family="'Gill Sans', 'Gill Sans MT', Calibri, sans-serif" xml:space="preserve">name: </text><text class="speech-bubble-content property-value" x="163.69140625" y="-50" alignment-baseline="central" font-size="50px" font-family="'Gill Sans', 'Gill Sans MT', Calibri, sans-serif">London</text><text class="speech-bubble-content property-value" x="163.69140625" y="0" alignment-baseline="central" font-size="50px" font-family="'Gill Sans', 'Gill Sans MT', Calibri, sans-serif">562990e5867791a26a71a3eb</text><text class="speech-bubble-content property-value" x="163.69140625" y="50" alignment-baseline="central" font-size="50px" font-family="'Gill Sans', 'Gill Sans MT', Calibri, sans-serif">GraphConnect</text></g></g><g class="layer overlay"><circle class="node overlay" r="189.9821614607479" stroke="none" fill="rgba(255, 255, 255, 0)" cx="0" cy="0"/><circle class="node ring" r="194.9821614607479" fill="none" stroke="rgba(255, 255, 255, 0)" stroke-width="10px" cx="0" cy="0"/><circle class="node overlay" r="256.1435675424154" stroke="none" fill="rgba(255, 255, 255, 0)" cx="1073.5590820312505" cy="258.90213012695347"/><circle class="node ring" r="261.1435675424154" fill="none" stroke="rgba(255, 255, 255, 0)" stroke-width="10px" cx="1073.5590820312505" cy="258.90213012695347"/><path class="relationship overlay" fill="rgba(255, 255, 255, 0)" stroke="rgba(255, 255, 255, 0)" stroke-width="10px" transform="translate(0,0) rotate(13.55869228571565)" d="M 200.9821614607479 4 L 805.1930729780624 4 L 805.1930729780624 16 L 837.1930729780624 0 L 805.1930729780624 -16 L 805.1930729780624 -4 L 200.9821614607479 -4 Z"/></g></svg>