<svg xmlns="http://www.w3.org/2000/svg" class="graphdiagram" viewBox="-926.43310546875 -344 1440 688"><g class="layer relationships"/><g class="layer nodes"><circle class="node node-id-0" r="185.9821614607479" fill="rgb(255, 255, 255)" stroke="rgb(0, 0, 0)" stroke-width="8px" cx="0" cy="0"/><g class="caption"><text class="caption node" text-anchor="middle" alignment-baseline="central" x="0" y="0" font-size="50px" font-family="'Gill Sans', 'Gill Sans MT', Calibri, sans-serif">:Document:talks</text></g></g><g class="layer properties"><g class="speech-bubble node-speech-bubble" transform="translate(-185.9821614607479,0) "><path class="speech-bubble-outline" transform="scale(-1,1) " d="M 0 0 L 20 -10 L 20 -25 A 10 10 0 0 1 30 -35 L 405.3662109375 -35 A 10 10 0 0 1 415.3662109375 -25 L 415.3662109375 25 A 10 10 0 0 1 405.3662109375 35 L 30 35 A 10 10 0 0 1 20 25 L 20 10 Z" fill="rgb(255, 255, 255)" stroke="rgb(0, 0, 0)" stroke-width="3px"/><text class="speech-bubble-content property-key" x="-288.7890625" y="0" alignment-baseline="central" text-anchor="end" font-size="50px" font-family="'Gill Sans', 'Gill Sans MT', Calibri, sans-serif" xml:space="preserve">level: </text><text class="speech-bubble-content property-value" x="-288.7890625" y="0" alignment-baseline="central" font-size="50px" font-family="'Gill Sans', 'Gill Sans MT', Calibri, sans-serif">Intermediate</text></g></g><g class="layer overlay"><circle class="node overlay" r="189.9821614607479" stroke="none" fill="rgba(255, 255, 255, 0)" cx="0" cy="0"/><circle class="node ring" r="194.9821614607479" fill="none" stroke="rgba(255, 255, 255, 0)" stroke-width="10px" cx="0" cy="0"/></g></svg>