<svg xmlns="http://www.w3.org/2000/svg" class="graphdiagram" viewBox="-2597.9077835693615 -1169.555588200436 6371.731945198988 3044.2719293728496"><g class="layer relationships"><g class="related-pair"><g class="relationship" transform="translate(115.0451698303223,-309.7369804382323) rotate(87.31524094835184)"><path class="relationship" d="M 200.9821614607479 4 L 1040.5195917738693 4 L 1040.5195917738693 16 L 1072.5195917738693 0 L 1040.5195917738693 -16 L 1040.5195917738693 -4 L 200.9821614607479 -4 Z" fill="rgb(0, 0, 0)" stroke="rgb(51, 51, 51)" stroke-width="0px"/><text class="type" text-anchor="middle" baseline-shift="30%" alignment-baseline="alphabetic" x="620.7508766173086" y="0" font-size="50px" font-family="'Gill Sans', 'Gill Sans MT', Calibri, sans-serif">talks_session</text></g></g><g class="related-pair"><g class="relationship" transform="translate(115.0451698303223,-309.7369804382323) rotate(131.8165156817685)"><path class="relationship" d="M 200.9821614607479 4 L 723.9955989395218 4 L 723.9955989395218 16 L 755.9955989395218 0 L 723.9955989395218 -16 L 723.9955989395218 -4 L 200.9821614607479 -4 Z" fill="rgb(0, 0, 0)" stroke="rgb(51, 51, 51)" stroke-width="0px"/><text class="type" text-anchor="middle" baseline-shift="30%" alignment-baseline="alphabetic" transform="rotate(180)" x="-462.4888802001349" y="0" font-size="50px" font-family="'Gill Sans', 'Gill Sans MT', Calibri, sans-serif">talks_speaker</text></g></g><g class="related-pair"><g class="relationship" transform="translate(1460.018511684124,-72.43769920055709) rotate(23.102964664578415)"><path class="relationship" d="M 200.9821614607479 4 L 461.0256027483406 4 L 461.0256027483406 16 L 493.0256027483406 0 L 461.0256027483406 -16 L 461.0256027483406 -4 L 200.9821614607479 -4 Z" fill="rgb(0, 0, 0)" stroke="rgb(51, 51, 51)" stroke-width="0px"/><text class="type" text-anchor="middle" baseline-shift="30%" alignment-baseline="alphabetic" x="331.00388210454423" y="0" font-size="50px" font-family="'Gill Sans', 'Gill Sans MT', Calibri, sans-serif">talks_session</text></g></g><g class="related-pair"><g class="relationship" transform="translate(1460.018511684124,-72.43769920055709) rotate(82.85179983233434)"><path class="relationship" d="M 200.9821614607479 4 L 466.5461006016169 4 L 466.5461006016169 16 L 498.5461006016169 0 L 466.5461006016169 -16 L 466.5461006016169 -4 L 200.9821614607479 -4 Z" fill="rgb(0, 0, 0)" stroke="rgb(51, 51, 51)" stroke-width="0px"/><text class="type" text-anchor="middle" baseline-shift="30%" alignment-baseline="alphabetic" x="333.7641310311824" y="0" font-size="50px" font-family="'Gill Sans', 'Gill Sans MT', Calibri, sans-serif">talks_speaker</text></g></g></g><g class="layer nodes"><circle class="node node-id-0" r="185.9821614607479" fill="rgb(255, 255, 255)" stroke="rgb(0, 0, 0)" stroke-width="8px" cx="115.0451698303223" cy="-309.7369804382323"/><circle class="node node-id-1" r="212.2619812873495" fill="rgb(255, 255, 255)" stroke="rgb(0, 0, 0)" stroke-width="8px" cx="175.92790005023645" cy="988.6179135836085"/><g class="caption"><text class="caption node" text-anchor="middle" alignment-baseline="central" x="115.0451698303223" y="-309.7369804382323" font-size="50px" font-family="'Gill Sans', 'Gill Sans MT', Calibri, sans-serif">:Document:talks</text></g><g class="caption"><text class="caption node" text-anchor="middle" alignment-baseline="central" x="175.92790005023645" y="988.6179135836085" font-size="50px" font-family="'Gill Sans', 'Gill Sans MT', Calibri, sans-serif">:Document:session</text></g><circle class="node node-id-2" r="218.21889398607024" fill="rgb(255, 255, 255)" stroke="rgb(0, 0, 0)" stroke-width="8px" cx="-544.5109504112829" cy="427.5085941608134"/><g class="caption"><text class="caption node" text-anchor="middle" alignment-baseline="central" x="-544.5109504112829" y="427.5085941608134" font-size="50px" font-family="'Gill Sans', 'Gill Sans MT', Calibri, sans-serif">:Document:speaker</text></g><circle class="node node-id-3" r="185.9821614607479" fill="rgb(255, 255, 255)" stroke="rgb(0, 0, 0)" stroke-width="8px" cx="1460.018511684124" cy="-72.43769920055709"/><circle class="node node-id-4" r="212.2619812873495" fill="rgb(255, 255, 255)" stroke="rgb(0, 0, 0)" stroke-width="8px" cx="2122.53989246075" cy="210.19213597224302"/><circle class="node node-id-5" r="218.21889398607024" fill="rgb(255, 255, 255)" stroke="rgb(0, 0, 0)" stroke-width="8px" cx="1551.0765916090766" cy="653.6397301307084"/><g class="caption"><text class="caption node" text-anchor="middle" alignment-baseline="central" x="1460.018511684124" y="-72.43769920055709" font-size="50px" font-family="'Gill Sans', 'Gill Sans MT', Calibri, sans-serif">:Document:talks</text></g><g class="caption"><text class="caption node" text-anchor="middle" alignment-baseline="central" x="2122.53989246075" y="210.19213597224302" font-size="50px" font-family="'Gill Sans', 'Gill Sans MT', Calibri, sans-serif">:Document:session</text></g><g class="caption"><text class="caption node" text-anchor="middle" alignment-baseline="central" x="1551.0765916090766" y="653.6397301307084" font-size="50px" font-family="'Gill Sans', 'Gill Sans MT', Calibri, sans-serif">:Document:speaker</text></g></g><g class="layer properties"><g class="speech-bubble node-speech-bubble" transform="translate(115.0451698303223,-495.7191418989802) "><path class="speech-bubble-outline" transform="scale(1,-1) " d="M 0 0 L -10 20 L -366.552734375 20 A 10 10 0 0 0 -376.552734375 30 L -376.552734375 180 A 10 10 0 0 0 -366.552734375 190 L 366.552734375 190 A 10 10 0 0 0 376.552734375 180 L 376.552734375 30 A 10 10 0 0 0 366.552734375 20 L 10 20 Z" fill="rgb(255, 255, 255)" stroke="rgb(0, 0, 0)" stroke-width="3px"/><text class="speech-bubble-content property-key" x="-220.361328125" y="-155" alignment-baseline="central" text-anchor="end" font-size="50px" font-family="'Gill Sans', 'Gill Sans MT', Calibri, sans-serif" xml:space="preserve">topics: </text><text class="speech-bubble-content property-key" x="-220.361328125" y="-105" alignment-baseline="central" text-anchor="end" font-size="50px" font-family="'Gill Sans', 'Gill Sans MT', Calibri, sans-serif" xml:space="preserve">_id: </text><text class="speech-bubble-content property-key" x="-220.361328125" y="-55" alignment-baseline="central" text-anchor="end" font-size="50px" font-family="'Gill Sans', 'Gill Sans MT', Calibri, sans-serif" xml:space="preserve">room: </text><text class="speech-bubble-content property-value" x="-220.361328125" y="-155" alignment-baseline="central" font-size="50px" font-family="'Gill Sans', 'Gill Sans MT', Calibri, sans-serif">["keynote", "spring"]</text><text class="speech-bubble-content property-value" x="-220.361328125" y="-105" alignment-baseline="central" font-size="50px" font-family="'Gill Sans', 'Gill Sans MT', Calibri, sans-serif">562990e5867791a26a71a3eb</text><text class="speech-bubble-content property-value" x="-220.361328125" y="-55" alignment-baseline="central" font-size="50px" font-family="'Gill Sans', 'Gill Sans MT', Calibri, sans-serif">Auditorium</text></g><g class="speech-bubble node-speech-bubble" transform="translate(175.92790005023645,1200.879894870958) "><path class="speech-bubble-outline" transform="scale(1,1) " d="M 0 0 L -10 20 L -1433.4716796875 20 A 10 10 0 0 0 -1443.4716796875 30 L -1443.4716796875 180 A 10 10 0 0 0 -1433.4716796875 190 L 1433.4716796875 190 A 10 10 0 0 0 1443.4716796875 180 L 1443.4716796875 30 A 10 10 0 0 0 1433.4716796875 20 L 10 20 Z" fill="rgb(255, 255, 255)" stroke="rgb(0, 0, 0)" stroke-width="3px"/><text class="speech-bubble-content property-key" x="-1246.7041015625" y="55" alignment-baseline="central" text-anchor="end" font-size="50px" font-family="'Gill Sans', 'Gill Sans MT', Calibri, sans-serif" xml:space="preserve">abstract: </text><text class="speech-bubble-content property-key" x="-1246.7041015625" y="105" alignment-baseline="central" text-anchor="end" font-size="50px" font-family="'Gill Sans', 'Gill Sans MT', Calibri, sans-serif" xml:space="preserve">_id: </text><text class="speech-bubble-content property-key" x="-1246.7041015625" y="155" alignment-baseline="central" text-anchor="end" font-size="50px" font-family="'Gill Sans', 'Gill Sans MT', Calibri, sans-serif" xml:space="preserve">title: </text><text class="speech-bubble-content property-value" x="-1246.7041015625" y="55" alignment-baseline="central" font-size="50px" font-family="'Gill Sans', 'Gill Sans MT', Calibri, sans-serif">Spring emerged as a core open source project in early 2003 and evolved to a broad portfolio of open source projects up until 2015.</text><text class="speech-bubble-content property-value" x="-1246.7041015625" y="105" alignment-baseline="central" font-size="50px" font-family="'Gill Sans', 'Gill Sans MT', Calibri, sans-serif">562990e5867791a26a71a3eb</text><text class="speech-bubble-content property-value" x="-1246.7041015625" y="155" alignment-baseline="central" font-size="50px" font-family="'Gill Sans', 'Gill Sans MT', Calibri, sans-serif">12 Years of Spring: An Open Source Journey</text></g><g class="speech-bubble node-speech-bubble" transform="translate(-698.8150101318615,581.812653881392) "><path class="speech-bubble-outline" transform="scale(-1,1) " d="M 0 0 L 30 20 L 1887.5927734375 20 A 10 10 0 0 1 1897.5927734375 30 L 1897.5927734375 280 A 10 10 0 0 1 1887.5927734375 290 L 30 290 A 10 10 0 0 1 20 280 L 20 30 Z" fill="rgb(255, 255, 255)" stroke="rgb(0, 0, 0)" stroke-width="3px"/><text class="speech-bubble-content property-key" x="-1719.4775390625" y="55" alignment-baseline="central" text-anchor="end" font-size="50px" font-family="'Gill Sans', 'Gill Sans MT', Calibri, sans-serif" xml:space="preserve">bio: </text><text class="speech-bubble-content property-key" x="-1719.4775390625" y="105" alignment-baseline="central" text-anchor="end" font-size="50px" font-family="'Gill Sans', 'Gill Sans MT', Calibri, sans-serif" xml:space="preserve">twitter: </text><text class="speech-bubble-content property-key" x="-1719.4775390625" y="155" alignment-baseline="central" text-anchor="end" font-size="50px" font-family="'Gill Sans', 'Gill Sans MT', Calibri, sans-serif" xml:space="preserve">_id: </text><text class="speech-bubble-content property-key" x="-1719.4775390625" y="205" alignment-baseline="central" text-anchor="end" font-size="50px" font-family="'Gill Sans', 'Gill Sans MT', Calibri, sans-serif" xml:space="preserve">name: </text><text class="speech-bubble-content property-key" x="-1719.4775390625" y="255" alignment-baseline="central" text-anchor="end" font-size="50px" font-family="'Gill Sans', 'Gill Sans MT', Calibri, sans-serif" xml:space="preserve">picture: </text><text class="speech-bubble-content property-value" x="-1719.4775390625" y="55" alignment-baseline="central" font-size="50px" font-family="'Gill Sans', 'Gill Sans MT', Calibri, sans-serif">Juergen Hoeller is co-founder of the Spring Framework open source project.</text><text class="speech-bubble-content property-value" x="-1719.4775390625" y="105" alignment-baseline="central" font-size="50px" font-family="'Gill Sans', 'Gill Sans MT', Calibri, sans-serif">https://twitter.com/springjuergen</text><text class="speech-bubble-content property-value" x="-1719.4775390625" y="155" alignment-baseline="central" font-size="50px" font-family="'Gill Sans', 'Gill Sans MT', Calibri, sans-serif">562990e5867791a26a71a3eb</text><text class="speech-bubble-content property-value" x="-1719.4775390625" y="205" alignment-baseline="central" font-size="50px" font-family="'Gill Sans', 'Gill Sans MT', Calibri, sans-serif">Juergen Hoeller</text><text class="speech-bubble-content property-value" x="-1719.4775390625" y="255" alignment-baseline="central" font-size="50px" font-family="'Gill Sans', 'Gill Sans MT', Calibri, sans-serif">http://www.springio.net/wp-content/uploads/2014/11/juergen_hoeller-220x220.jpeg</text></g><g class="speech-bubble node-speech-bubble" transform="translate(1328.5092641354977,-203.94694674918333) "><path class="speech-bubble-outline" transform="scale(-1,-1) " d="M 0 0 L 30 20 L 779.1943359375 20 A 10 10 0 0 1 789.1943359375 30 L 789.1943359375 230 A 10 10 0 0 1 779.1943359375 240 L 30 240 A 10 10 0 0 1 20 230 L 20 30 Z" fill="rgb(255, 255, 255)" stroke="rgb(0, 0, 0)" stroke-width="3px"/><text class="speech-bubble-content property-key" x="-589.7900390625" y="-205" alignment-baseline="central" text-anchor="end" font-size="50px" font-family="'Gill Sans', 'Gill Sans MT', Calibri, sans-serif" xml:space="preserve">topics: </text><text class="speech-bubble-content property-key" x="-589.7900390625" y="-155" alignment-baseline="central" text-anchor="end" font-size="50px" font-family="'Gill Sans', 'Gill Sans MT', Calibri, sans-serif" xml:space="preserve">_id: </text><text class="speech-bubble-content property-key" x="-589.7900390625" y="-105" alignment-baseline="central" text-anchor="end" font-size="50px" font-family="'Gill Sans', 'Gill Sans MT', Calibri, sans-serif" xml:space="preserve">room: </text><text class="speech-bubble-content property-key" x="-589.7900390625" y="-55" alignment-baseline="central" text-anchor="end" font-size="50px" font-family="'Gill Sans', 'Gill Sans MT', Calibri, sans-serif" xml:space="preserve">timeslot: </text><text class="speech-bubble-content property-value" x="-589.7900390625" y="-205" alignment-baseline="central" font-size="50px" font-family="'Gill Sans', 'Gill Sans MT', Calibri, sans-serif">["keynote", "javascript"]</text><text class="speech-bubble-content property-value" x="-589.7900390625" y="-155" alignment-baseline="central" font-size="50px" font-family="'Gill Sans', 'Gill Sans MT', Calibri, sans-serif">562aedf5867791a26a71a3f2</text><text class="speech-bubble-content property-value" x="-589.7900390625" y="-105" alignment-baseline="central" font-size="50px" font-family="'Gill Sans', 'Gill Sans MT', Calibri, sans-serif">Auditorium</text><text class="speech-bubble-content property-value" x="-589.7900390625" y="-55" alignment-baseline="central" font-size="50px" font-family="'Gill Sans', 'Gill Sans MT', Calibri, sans-serif">Wed 29th, 10:00-11:30</text></g><g class="speech-bubble node-speech-bubble" transform="translate(2272.631778817127,360.2840223286199) "><path class="speech-bubble-outline" transform="scale(1,1) " d="M 0 0 L 30 20 L 1489.6923828125 20 A 10 10 0 0 1 1499.6923828125 30 L 1499.6923828125 180 A 10 10 0 0 1 1489.6923828125 190 L 30 190 A 10 10 0 0 1 20 180 L 20 30 Z" fill="rgb(255, 255, 255)" stroke="rgb(0, 0, 0)" stroke-width="3px"/><text class="speech-bubble-content property-key" x="216.767578125" y="55" alignment-baseline="central" text-anchor="end" font-size="50px" font-family="'Gill Sans', 'Gill Sans MT', Calibri, sans-serif" xml:space="preserve">abstract: </text><text class="speech-bubble-content property-key" x="216.767578125" y="105" alignment-baseline="central" text-anchor="end" font-size="50px" font-family="'Gill Sans', 'Gill Sans MT', Calibri, sans-serif" xml:space="preserve">_id: </text><text class="speech-bubble-content property-key" x="216.767578125" y="155" alignment-baseline="central" text-anchor="end" font-size="50px" font-family="'Gill Sans', 'Gill Sans MT', Calibri, sans-serif" xml:space="preserve">title: </text><text class="speech-bubble-content property-value" x="216.767578125" y="55" alignment-baseline="central" font-size="50px" font-family="'Gill Sans', 'Gill Sans MT', Calibri, sans-serif">A little about React and how helpful it can be to your projects.</text><text class="speech-bubble-content property-value" x="216.767578125" y="105" alignment-baseline="central" font-size="50px" font-family="'Gill Sans', 'Gill Sans MT', Calibri, sans-serif">562aedf5867791a26a71a3f2</text><text class="speech-bubble-content property-value" x="216.767578125" y="155" alignment-baseline="central" font-size="50px" font-family="'Gill Sans', 'Gill Sans MT', Calibri, sans-serif">First steps with React</text></g><g class="speech-bubble node-speech-bubble" transform="translate(1551.0765916090766,871.8586241167786) "><path class="speech-bubble-outline" transform="scale(1,1) " d="M 0 0 L -10 20 L -904.5166015625 20 A 10 10 0 0 0 -914.5166015625 30 L -914.5166015625 280 A 10 10 0 0 0 -904.5166015625 290 L 904.5166015625 290 A 10 10 0 0 0 914.5166015625 280 L 914.5166015625 30 A 10 10 0 0 0 904.5166015625 20 L 10 20 Z" fill="rgb(255, 255, 255)" stroke="rgb(0, 0, 0)" stroke-width="3px"/><text class="speech-bubble-content property-key" x="-736.4013671875" y="55" alignment-baseline="central" text-anchor="end" font-size="50px" font-family="'Gill Sans', 'Gill Sans MT', Calibri, sans-serif" xml:space="preserve">bio: </text><text class="speech-bubble-content property-key" x="-736.4013671875" y="105" alignment-baseline="central" text-anchor="end" font-size="50px" font-family="'Gill Sans', 'Gill Sans MT', Calibri, sans-serif" xml:space="preserve">twitter: </text><text class="speech-bubble-content property-key" x="-736.4013671875" y="155" alignment-baseline="central" text-anchor="end" font-size="50px" font-family="'Gill Sans', 'Gill Sans MT', Calibri, sans-serif" xml:space="preserve">_id: </text><text class="speech-bubble-content property-key" x="-736.4013671875" y="205" alignment-baseline="central" text-anchor="end" font-size="50px" font-family="'Gill Sans', 'Gill Sans MT', Calibri, sans-serif" xml:space="preserve">name: </text><text class="speech-bubble-content property-key" x="-736.4013671875" y="255" alignment-baseline="central" text-anchor="end" font-size="50px" font-family="'Gill Sans', 'Gill Sans MT', Calibri, sans-serif" xml:space="preserve">picture: </text><text class="speech-bubble-content property-value" x="-736.4013671875" y="55" alignment-baseline="central" font-size="50px" font-family="'Gill Sans', 'Gill Sans MT', Calibri, sans-serif">Senior Developer.</text><text class="speech-bubble-content property-value" x="-736.4013671875" y="105" alignment-baseline="central" font-size="50px" font-family="'Gill Sans', 'Gill Sans MT', Calibri, sans-serif">https://twitter.com/react_developer</text><text class="speech-bubble-content property-value" x="-736.4013671875" y="155" alignment-baseline="central" font-size="50px" font-family="'Gill Sans', 'Gill Sans MT', Calibri, sans-serif">562aedf5867791a26a71a3f2</text><text class="speech-bubble-content property-value" x="-736.4013671875" y="205" alignment-baseline="central" font-size="50px" font-family="'Gill Sans', 'Gill Sans MT', Calibri, sans-serif">Peter Hunt</text><text class="speech-bubble-content property-value" x="-736.4013671875" y="255" alignment-baseline="central" font-size="50px" font-family="'Gill Sans', 'Gill Sans MT', Calibri, sans-serif">http://www.reactiospeakers.org/wp-content/uploads/2015/09/peter-220x220.jpeg</text></g></g><g class="layer overlay"><circle class="node overlay" r="189.9821614607479" stroke="none" fill="rgba(255, 255, 255, 0)" cx="115.0451698303223" cy="-309.7369804382323"/><circle class="node overlay" r="216.2619812873495" stroke="none" fill="rgba(255, 255, 255, 0)" cx="175.92790005023645" cy="988.6179135836085"/><circle class="node ring" r="194.9821614607479" fill="none" stroke="rgba(255, 255, 255, 0)" stroke-width="10px" cx="115.0451698303223" cy="-309.7369804382323"/><circle class="node ring" r="221.2619812873495" fill="none" stroke="rgba(255, 255, 255, 0)" stroke-width="10px" cx="175.92790005023645" cy="988.6179135836085"/><path class="relationship overlay" fill="rgba(255, 255, 255, 0)" stroke="rgba(255, 255, 255, 0)" stroke-width="10px" transform="translate(115.0451698303223,-309.7369804382323) rotate(87.31524094835184)" d="M 200.9821614607479 4 L 1040.5195917738693 4 L 1040.5195917738693 16 L 1072.5195917738693 0 L 1040.5195917738693 -16 L 1040.5195917738693 -4 L 200.9821614607479 -4 Z"/><circle class="node overlay" r="222.21889398607024" stroke="none" fill="rgba(255, 255, 255, 0)" cx="-544.5109504112829" cy="427.5085941608134"/><circle class="node ring" r="227.21889398607024" fill="none" stroke="rgba(255, 255, 255, 0)" stroke-width="10px" cx="-544.5109504112829" cy="427.5085941608134"/><path class="relationship overlay" fill="rgba(255, 255, 255, 0)" stroke="rgba(255, 255, 255, 0)" stroke-width="10px" transform="translate(115.0451698303223,-309.7369804382323) rotate(131.8165156817685)" d="M 200.9821614607479 4 L 723.9955989395218 4 L 723.9955989395218 16 L 755.9955989395218 0 L 723.9955989395218 -16 L 723.9955989395218 -4 L 200.9821614607479 -4 Z"/><circle class="node overlay" r="189.9821614607479" stroke="none" fill="rgba(255, 255, 255, 0)" cx="1460.018511684124" cy="-72.43769920055709"/><circle class="node overlay" r="216.2619812873495" stroke="none" fill="rgba(255, 255, 255, 0)" cx="2122.53989246075" cy="210.19213597224302"/><circle class="node overlay" r="222.21889398607024" stroke="none" fill="rgba(255, 255, 255, 0)" cx="1551.0765916090766" cy="653.6397301307084"/><circle class="node ring" r="194.9821614607479" fill="none" stroke="rgba(255, 255, 255, 0)" stroke-width="10px" cx="1460.018511684124" cy="-72.43769920055709"/><circle class="node ring" r="221.2619812873495" fill="none" stroke="rgba(255, 255, 255, 0)" stroke-width="10px" cx="2122.53989246075" cy="210.19213597224302"/><circle class="node ring" r="227.21889398607024" fill="none" stroke="rgba(255, 255, 255, 0)" stroke-width="10px" cx="1551.0765916090766" cy="653.6397301307084"/><path class="relationship overlay" fill="rgba(255, 255, 255, 0)" stroke="rgba(255, 255, 255, 0)" stroke-width="10px" transform="translate(1460.018511684124,-72.43769920055709) rotate(23.102964664578415)" d="M 200.9821614607479 4 L 461.0256027483406 4 L 461.0256027483406 16 L 493.0256027483406 0 L 461.0256027483406 -16 L 461.0256027483406 -4 L 200.9821614607479 -4 Z"/><path class="relationship overlay" fill="rgba(255, 255, 255, 0)" stroke="rgba(255, 255, 255, 0)" stroke-width="10px" transform="translate(1460.018511684124,-72.43769920055709) rotate(82.85179983233434)" d="M 200.9821614607479 4 L 466.5461006016169 4 L 466.5461006016169 16 L 498.5461006016169 0 L 466.5461006016169 -16 L 466.5461006016169 -4 L 200.9821614607479 -4 Z"/></g></svg>